
<svg xmlns="http://www.w3.org/2000/svg" version="1.1" xmlns:xlink="http://www.w3.org/1999/xlink" preserveAspectRatio="none" x="0px" y="0px" width="210px" height="700px" viewBox="0 0 210 700">
<defs>
<g id="Layer0_0_FILL">
<path fill="#FAFAFA" stroke="none" d="
M 37.95 120.15
L 32.05 120.2 32.05 126.15
Q 32.05 127.35 32.95 128 33.8 128.65 35 128.65 36.25 128.65 37.05 128 37.95 127.35 37.95 126.15
L 37.95 120.15
M 19.7 88.45
Q 17.1 91.3 17.15 94.65 17.15 98.3 20.3 99.95
L 20.35 102.7
Q 20.35 102.85 20.35 103.05 20.35 103.55 20.35 103.95 20.35 104 20.35 104.1 20.35 104.25 20.35 104.4
L 20.35 104.45
Q 20.35 104.6 20.35 104.75
L 20.35 104.85
Q 20.35 105 20.35 105.1
L 20.4 112.85
Q 20.4 114.45 21.35 115.55 21.5 115.75 21.65 115.9 22.5 116.75 23.65 116.75
L 46.3 116.7
Q 47.65 116.75 48.6 115.6 49.55 114.4 49.55 112.8
L 49.6 100.4
Q 52.9 98.15 52.85 94.5 52.85 91.2 50.2 88.5 47.45 85.7 43.65 85.5 39.25 85.25 35.15 88.75 30.7 84.9 26.25 85.2 22.35 85.45 19.7 88.45 Z"/>

<path fill="#FFFFFF" stroke="none" d="
M 44.3 23.9
Q 44.3 20.5 41.65 17.75 38.8 14.9 34.9 14.9 30.95 14.9 28.1 17.75 25.35 20.6 25.35 23.9
L 25.35 29.25 22.75 29.25
Q 21.85 29.25 21.1 30 20.45 30.6 20.45 31.55
L 20.45 48.95
Q 20.45 49.9 21.1 50.5 21.85 51.25 22.75 51.25
L 47.15 51.25
Q 48.1 51.25 48.75 50.5 49.45 49.9 49.45 48.95
L 49.45 31.55
Q 49.45 30.6 48.75 30 48.1 29.25 47.15 29.25
L 44.3 29.25 44.3 23.9
M 40.9 23.9
L 40.9 29.25 28.85 29.25 28.85 23.9
Q 28.85 22 30.5 20.25 32.25 18.3 34.9 18.3 37.4 18.3 39.25 20.25 40.9 22.05 40.9 23.9 Z"/>
</g>
</defs>

<g transform="matrix( 1, 0, 0, 1, 0,0) ">
<use xlink:href="#Layer0_0_FILL"/>
</g>
</svg>
