
<svg xmlns="http://www.w3.org/2000/svg" version="1.1" xmlns:xlink="http://www.w3.org/1999/xlink" preserveAspectRatio="none" x="0px" y="0px" width="126px" height="150px" viewBox="0 0 126 150">
<defs>
<g id="Layer0_0_FILL">
<path fill="#FFFFFF" stroke="none" d="
M 116.4 35
L 116.4 34.95
Q 116.5 25.1 107.3 17.3 98.55 9.75 86.3 9.25 74.5 8.65 63.45 15.4 51.4 7.95 39.3 8.65 30.15 9.2 23 13.75
L 18.25 17.45
Q 9.5 25.6 9.8 35.4 9.8 35.45 9.8 35.5 9.75 45.1 18.25 50.5
L 18.45 100.5
Q 18.45 106.45 22.7 110.65 26.95 114.75 32.75 114.75
L 93.35 114.75
Q 99.3 114.75 103.45 110.65
L 104.3 108.65 104.4 108.6 103.55 110.6
Q 107.7 106.3 107.7 100.5
L 107.7 51.15
Q 116.7 44.7 116.4 35
M 112.15 35
Q 112.35 43.45 103.45 48.85
L 103.45 100.5
Q 103.45 104.6 100.55 107.65 97.55 110.6 93.35 110.6
L 32.75 110.6
Q 28.6 110.6 25.6 107.65 22.7 104.65 22.7 100.5
L 22.5 47.95
Q 14.05 43.8 14.05 35.4 13.85 27.3 21.2 20.55 28.65 13.45 39.5 12.9 51.4 12.25 63.4 20.45 74.4 12.95 86.1 13.45 96.85 13.9 104.6 20.45 112.1 26.9 112.15 35 Z"/>

<path fill="#000000" stroke="none" d="
M 103.45 48.85
Q 112.35 43.45 112.15 35 112.1 26.9 104.6 20.45 96.85 13.9 86.1 13.45 74.4 12.95 63.4 20.45 51.4 12.25 39.5 12.9 28.65 13.45 21.2 20.55 13.85 27.3 14.05 35.4 14.05 43.8 22.5 47.95
L 22.7 100.5
Q 22.7 104.65 25.6 107.65 28.6 110.6 32.75 110.6
L 93.35 110.6
Q 97.55 110.6 100.55 107.65 103.45 104.6 103.45 100.5
L 103.45 48.85
M 109.35 35
L 109.35 35.05
Q 109.35 42.3 101.4 46.85
L 100.65 47.25 100.65 100.5
Q 100.65 103.45 98.55 105.65 96.35 107.75 93.35 107.75
L 32.75 107.75
Q 29.75 107.75 27.6 105.65 25.5 103.55 25.5 100.5
L 25.3 46.15 24.5 45.8
Q 16.95 42.45 16.8 35.4 16.8 28.45 23.1 22.55 29.9 16.2 39.6 15.7 51.15 15.1 62.6 23.35
L 63.4 23.9 64.25 23.35
Q 74.75 15.85 86 16.25 95.75 16.65 102.75 22.6 109.25 28.15 109.35 35 Z"/>

<path fill="#FEE9D6" stroke="none" d="
M 109.35 35.05
L 109.35 35
Q 109.25 28.15 102.75 22.6 95.75 16.65 86 16.25 74.75 15.85 64.25 23.35
L 63.4 23.9 62.6 23.35
Q 51.15 15.1 39.6 15.7 29.9 16.2 23.1 22.55 16.8 28.45 16.8 35.4 16.95 42.45 24.5 45.8
L 25.3 46.15 25.5 100.5
Q 25.5 103.55 27.6 105.65 29.75 107.75 32.75 107.75
L 93.35 107.75
Q 96.35 107.75 98.55 105.65 100.65 103.45 100.65 100.5
L 100.65 47.25 101.4 46.85
Q 109.35 42.3 109.35 35.05 Z"/>
</g>
</defs>

<g transform="matrix( 1, 0, 0, 1, 0,0) ">
<use xlink:href="#Layer0_0_FILL"/>
</g>
</svg>
